<svg width="200" height="58" viewBox="0 0 200 58" fill="none" xmlns="http://www.w3.org/2000/svg">
<g clip-path="url(#clip0_8646_1745)">
<path d="M37.7519 23.4685C38.8884 22.2994 41.3773 20.1059 41.7329 18.6186C41.8409 18.1656 42.032 16.9965 41.4554 16.8116C39.6942 16.2487 37.8699 17.7093 36.6603 18.8152C36.0489 19.3748 33.5101 22.1778 33.0117 22.2827C32.1726 22.4592 31.9766 20.6572 31.8985 20.0709C31.1126 14.2384 35.5887 9.05715 41.1148 7.83636C43.7716 7.25011 46.4499 7.62984 48.9538 8.65577C49.2628 8.78235 49.6566 8.94057 49.7945 9.25368C51.8265 13.9337 51.1968 19.2066 47.6013 22.8973C44.9147 25.6536 41.0135 27.1026 37.2053 26.1932C36.6587 26.0633 36.1203 25.8718 36.1818 25.2139C36.2267 24.7359 37.3714 23.8582 37.7536 23.4669L37.7519 23.4685Z" fill="#FF6D00"/>
<path d="M20.2711 34.7484C19.3174 35.7294 17.0212 37.6264 16.8667 38.9771C16.8368 39.2436 16.8118 40.506 16.9996 40.6242C17.8985 41.1888 19.8557 40.3694 20.6482 39.8048C22.2798 38.3509 23.7951 36.7787 25.347 35.2381C26.078 35.0132 26.1528 35.2614 26.3655 35.856C28.0585 40.5793 25.2772 45.6357 21.2829 48.1255C17.7805 50.3073 13.6367 50.4222 9.8435 48.8983C9.04431 48.5769 8.92469 48.452 8.60568 47.6575C7.46589 44.8279 7.28644 41.0539 8.54918 38.2426C10.6759 33.506 15.8515 30.26 21.1018 31.2926C21.7565 31.4208 22.8813 31.7339 22.3313 32.6133C22.0439 33.0713 20.7413 34.2671 20.2711 34.7484Z" fill="#FF6D00"/>
<path d="M23.203 10.9019C26.0143 13.5867 27.6442 17.334 26.4845 21.2562C26.2651 21.9973 25.9777 22.7018 25.1386 22.0423C24.062 20.9847 23.0468 19.8306 21.9452 18.803C20.5446 17.4956 18.9429 16.2548 16.9026 16.9326C16.7115 17.2041 16.8145 18.4299 16.9009 18.7813C17.1618 19.8422 18.4461 20.9931 19.2087 21.7892C20.189 22.8101 21.2408 23.7877 22.251 24.7787C22.776 25.5398 22.2343 25.9912 21.5 26.1827C15.4022 27.7632 9.0254 22.9134 7.88229 16.9393C7.37719 14.2928 7.83244 11.5282 8.92571 9.09822C8.99217 9.00829 9.55542 8.74348 9.70496 8.67852C14.4087 6.64165 19.4879 7.35614 23.203 10.9036V10.9019Z" fill="#FF6D00"/>
<path d="M34.6346 45.7677C33.9633 45.0165 33.405 44.3337 32.9448 43.421C31.6372 40.8245 31.378 37.9316 32.5062 35.2135C32.767 35.1353 33.0794 35.1369 33.3037 35.3001C34.7143 36.5809 35.987 38.1748 37.4574 39.3789C38.5191 40.2483 39.5676 40.9061 41.0097 40.7779C41.3537 40.7479 41.7092 40.7096 41.7607 40.3332C42.0017 38.6128 41.2938 37.7234 40.2172 36.5359C38.9794 35.1736 37.5422 33.9794 36.3044 32.6137C35.7444 31.721 36.964 31.4013 37.6003 31.2797C42.8723 30.2637 48.204 33.633 50.133 38.5162C51.4274 41.7938 51.0718 45.3246 49.6678 48.4974C48.4948 49.047 47.2321 49.5017 45.9461 49.7282C41.6129 50.4876 37.5355 49.0203 34.6346 45.771V45.7677Z" fill="#FF6D00"/>
<path d="M29.8571 17.8753C29.6926 18.0402 28.8917 18.0336 28.7223 17.8104C28.5395 17.5672 28.5594 16.5146 28.483 16.1299C27.7602 12.5242 24.9191 9.22153 21.734 7.53274C21.3469 7.32788 21.1292 7.52608 21.091 6.89653C20.9996 5.40926 22.6794 3.15254 23.771 2.21487C27.398 -0.892905 32.3526 -0.554814 35.5726 2.94269C36.3004 3.73212 37.495 5.74402 37.5432 6.81159C37.5781 7.59603 36.7938 7.57437 36.2339 7.9058C33.4791 9.53464 30.7925 12.8523 30.1345 16.0333C30.0498 16.4414 30.088 17.6438 29.8571 17.8753Z" fill="#FF6D00"/>
<path d="M35.3327 54.725C32.7972 57.3614 29.3031 58.1592 25.8854 56.6586C23.9597 55.8126 21.7798 53.5325 21.2315 51.4807C20.8045 49.8818 21.4076 50.2166 22.4793 49.562C25.1692 47.9182 27.6981 44.7738 28.4158 41.671C28.5288 41.1797 28.5604 39.8073 28.9757 39.5925C30.2318 38.9413 30.0092 40.78 30.1371 41.4345C30.3066 42.3105 31.0194 43.946 31.4597 44.7488C32.7058 47.0205 34.992 49.064 37.3331 50.1433C37.7751 50.4714 37.2484 51.8804 37.0506 52.3267C36.6486 53.2394 36.0039 54.0255 35.3327 54.725Z" fill="#FF6D00"/>
<path d="M9.62971 24.1852C11.3494 25.9722 14.0942 27.5378 16.5266 28.0341C16.8273 28.0957 17.6863 28.0974 17.8575 28.2189C18.0701 28.3722 18.1399 29.045 17.9405 29.2532C17.7694 29.4314 16.1461 29.5913 15.744 29.6912C12.529 30.4957 9.62805 32.869 7.85689 35.627C7.59603 36.0334 7.43985 36.8228 6.92977 36.8428C6.41969 36.8628 5.37792 36.473 4.89941 36.2465C2.25098 34.9874 0.28376 32.0795 0.102656 29.1333C-0.105032 25.7474 2.44703 21.9751 5.67201 20.9558C6.01262 20.8476 6.87992 20.6044 7.17069 20.7693C7.96488 21.8918 8.67268 23.1909 9.62805 24.1852H9.62971Z" fill="#FF6D00"/>
<path d="M49.0646 33.4657C47.5676 31.8519 45.4442 30.3596 43.2876 29.7734C42.4967 29.5585 41.5845 29.5052 40.782 29.3253C40.458 29.1821 40.5095 28.431 40.7372 28.2594C40.9648 28.0879 41.7723 28.1062 42.1096 28.0346C46.2102 27.1619 49.4634 24.3772 51.4273 20.7332C51.5336 20.6665 51.6615 20.6865 51.7795 20.6982C55.581 21.0796 58.8193 25.5597 58.5219 29.2854C58.281 32.3249 55.7738 35.8157 52.7864 36.6584C52.5272 36.7317 51.6466 36.9083 51.4622 36.7833L49.706 34.1419C49.5033 33.9071 49.2723 33.6922 49.063 33.4674L49.0646 33.4657Z" fill="#FF6D00"/>
</g>
<g clip-path="url(#clip1_8646_1745)">
<path d="M101.043 44.0731C101.043 45.8432 99.5998 47.2859 97.8298 47.2859C96.4911 47.2859 95.316 46.4307 94.8847 45.2482L93.0106 40.1092H75.8757L74.0016 45.2482C73.5702 46.4232 72.3952 47.2859 71.0565 47.2859C69.2865 47.2859 67.8438 45.8432 67.8438 44.0731C67.8438 43.7013 68.0074 43.27 68.1115 42.9502L79.3042 14.459C80.1074 12.4213 82.0856 10.9264 84.4431 10.9264C86.8007 10.9264 88.7789 12.4287 89.5821 14.459L100.775 42.9502C100.879 43.27 101.043 43.7013 101.043 44.0731ZM91.0323 34.5984L84.4431 16.5488L77.854 34.5984H91.0249H91.0323Z" fill="#FF6D00"/>
<path d="M142.117 28.2767V44.4522C142.117 46.0065 140.83 47.2931 139.276 47.2931C137.722 47.2931 136.487 46.0065 136.487 44.4522V30.0987C136.487 27.3173 135.252 25.4432 132.255 25.4432C129.742 25.4432 127.384 27.2132 126.261 28.8716V44.4522C126.261 46.0065 124.975 47.2931 123.42 47.2931C121.866 47.2931 120.639 46.0065 120.639 44.4522V30.0987C120.639 27.3173 119.404 25.4432 116.355 25.4432C113.893 25.4432 111.588 27.2132 110.413 28.9237V44.4522C110.413 46.0065 109.126 47.2931 107.631 47.2931C106.137 47.2931 104.791 46.0065 104.791 44.4522V23.6211C104.791 22.0668 106.077 20.7802 107.572 20.7802C109.067 20.7802 110.413 22.0668 110.413 23.6211V24.64C111.484 23.0857 114.912 20.4604 118.817 20.4604C122.721 20.4604 125.027 22.3866 125.882 25.2275C127.384 22.87 130.805 20.4604 134.665 20.4604C139.432 20.4604 142.109 23.0336 142.109 28.2767H142.117Z" fill="#FF6D00"/>
<path d="M173.441 34.0629C173.441 42.5783 168.57 47.6132 161.981 47.6132C158.604 47.6132 155.659 46.0068 153.681 43.4336V44.4524C153.681 46.0068 152.394 47.2934 150.9 47.2934C149.405 47.2934 148.059 46.0068 148.059 44.4524V13.7674C148.059 12.213 149.345 10.9264 150.9 10.9264C152.454 10.9264 153.681 12.213 153.681 13.7674V24.6923C155.719 21.9629 158.716 20.4607 161.981 20.4607C168.622 20.4607 173.441 25.7112 173.441 34.0629ZM167.655 34.0629C167.655 29.0281 164.814 25.4435 160.315 25.4435C157.69 25.4435 154.908 27.0498 153.674 28.976V39.2019C154.908 41.1281 157.69 42.6304 160.315 42.6304C164.814 42.6304 167.655 39.0978 167.655 34.0629Z" fill="#FF6D00"/>
<path d="M179.437 52.4844H179.705C181.475 52.4844 182.65 51.949 183.401 50.2385L184.688 47.2934L175.473 24.5882C175.369 24.2684 175.31 23.9486 175.31 23.5694C175.31 22.015 176.544 20.7879 178.039 20.7879C179.214 20.7879 180.285 21.5391 180.664 22.5579L187.625 40.496L194.586 22.5579C194.958 21.5391 196.029 20.7879 197.212 20.7879C198.766 20.7879 199.993 22.0225 199.993 23.5694C199.993 23.9412 199.889 24.3205 199.777 24.6403L188.748 51.6292C186.978 56.017 183.877 57.4152 179.861 57.4672C179.645 57.4672 179.378 57.4672 179.058 57.4152C177.771 57.311 176.752 56.2922 176.752 54.9535C176.752 53.6149 178.039 52.4919 179.43 52.4919L179.437 52.4844Z" fill="#FF6D00"/>
</g>
<defs>
<clipPath id="clip0_8646_1745">
<rect width="58.651" height="57.4589" fill="white"/>
</clipPath>
<clipPath id="clip1_8646_1745">
<rect width="132.156" height="46.5333" fill="white" transform="translate(67.8442 10.9256)"/>
</clipPath>
</defs>
</svg>
